# xmcd
#
# Track frame offsets:
#	150
#	16598
#	35685
#	54135
#	69465
#	83239
#	95528
#	110854
#	125522
#	144932
#	158995
#	177974
#	195509
#	209589
#
# Disc length: 3219
#
# Revision: 1
# Processed by: cddbd v1.5.1PL0 Copyright (c) Steve Scherf et al.
# Submitted via: VisiTrax 2.9.5.180 - For more info visit www.synapsa.com
# Normalized: r0:DSETVAR1
#
DISCID=bd0c910e
DTITLE=Various Artist - CDX 246 August 2000
DYEAR=2000
DGENRE=
TTITLE0=Jack Ingram - Barbie doll
TTITLE1=Rebecca Lynn Howard - I don't paint myself into corners
TTITLE2=Jolie and The Wanted - I would
TTITLE3=Clinton Gregory - Making ends meet
TTITLE4=Clark Family Experience - Meanwhile back at the ranch
TTITLE5=Rodney Carrington - More of a man
TTITLE6=Tammy Cochran - So what
TTITLE7=Wade hayes - What's it gonna take
TTITLE8=Paul Overstreet - When Mama ain't happy
TTITLE9=Kacey Jones/Delbert McClinton - You're the reason our kids are ugly
TTITLE10=Brandon Sandfur - Right between the lies
TTITLE11=Wes McClelland - This thing called love
TTITLE12=Bill Engvall/Tracy  Byrd/Neal McCoy/T Graham Brown - Now that's awesosme
TTITLE13=Bill Engvall - Now that's awesome
EXTD=
EXTT0=
EXTT1=
EXTT2=
EXTT3=
EXTT4=
EXTT5=
EXTT6=
EXTT7=
EXTT8=
EXTT9=
EXTT10=
EXTT11=
EXTT12=
EXTT13=
PLAYORDER=
